# xmcd
#
# Track frame offsets:
# 150
# 14922
# 31832
# 55359
# 70722
# 84734
# 95920
# 118218
# 133878
# 151539
# 165683
# 182783
# 200645
# 218621
# 238139
# 257342
# 272308
#
# Disc length: 3830 seconds
#
#
# Revision: 0
# Processed by: cddbd v1.5.1PL2 Copyright (c) Steve Scherf et al.
# Submitted via: FreeRIP 2.945 
#
DISCID=f20ef411
DTITLE=Joao Neto e Frederico - Modao ao VIVO
DYEAR=2006
DGENRE=Sertanejo
TTITLE0=Sublime Renuncia
TTITLE1=Noite de Tortura
TTITLE2=Pout Pourrie
TTITLE3=Só de Você
TTITLE4=Saudade
TTITLE5=Noite Triste
TTITLE6=Pout pourrie
TTITLE7=Pega Fogo
TTITLE8=É por Você que Canto
TTITLE9=Eu disse não
TTITLE10=Quero provar que te amo
TTITLE11=Laço aberto
TTITLE12=Pout pourrie
TTITLE13=Viver sem Ar
TTITLE14=Pout pourrie
TTITLE15=Mulher Breteira
TTITLE16=Seu amor ainda é tudo
EXTD=
EXTT0=
EXTT1=
EXTT2=
EXTT3=
EXTT4=
EXTT5=
EXTT6=
EXTT7=
EXTT8=
EXTT9=
EXTT10=
EXTT11=
EXTT12=
EXTT13=
EXTT14=
EXTT15=
EXTT16=
PLAYORDER=
